<svg id="Layer_1" data-name="Layer 1" xmlns="http://www.w3.org/2000/svg" viewBox="0 0 287.19 130.94"><defs><style>.cls-1{fill:#347439;}.cls-1,.cls-2,.cls-3,.cls-4,.cls-5{fill-rule:evenodd;}.cls-2{fill:#010101;}.cls-3{fill:#030303;}.cls-4{fill:#f6b63b;}.cls-5{fill:#ac452c;}</style></defs><title>logo-fish-light</title><path class="cls-1" d="M109.62,101.85c-2.87.43-6.75,4-6.75,6.18,0,.21-.07.43-.21.43-.86.5.07,5.17,1.43,7.11,1.58,2.37,5,4.09,7.26,3.73,4-.64,6.17-2.37,7.54-6,.43-1.07.5-4.81.14-5-.07-.08-.21-.22-.21-.36a9.4,9.4,0,0,0-1.15-2.52c-1.37-2.44-4.89-4-8-3.59" transform="translate(-5.56 -86.84)"/><path class="cls-2" d="M81.62,175.61c-.51.21-.72.5-4.39,6.39-4.16,6.68-3.8,5.81-2.94,6.46,1.08.72,1.44.43,3.3-2.73,1.66-2.8,1.66-2.87,2.73-2.22.86.5,1.22.5,1.58,0s.36-.87-.57-1.51c-.43-.36-.86-.65-.86-.79a28.43,28.43,0,0,1,2.37-3.88s.64.36,1.43.86c1.65,1,2.37.93,2.37-.29,0-.64-4.23-2.58-5-2.29" transform="translate(-5.56 -86.84)"/><path class="cls-2" d="M219.14,176.18a8.34,8.34,0,0,0-2,1.22,2.81,2.81,0,0,0-.43,3.52,4.48,4.48,0,0,1,.43.79s.43.79.93,1.58l.94,1.58a14.56,14.56,0,0,0,1.94,3c1.93,2.15,7-1.37,5.45-3.81-.36-.57-.64-.57-1.5-.07-.65.43-.65.5-.36,1.58.14.43-.79,1.22-1.44,1.22-.36,0-1.94-2.59-2-3.16a18.11,18.11,0,0,1,2.87-1.87c.72-.43.72-.57-.79-3-1.51-2.59-2.3-3-4-2.59" transform="translate(-5.56 -86.84)"/><path class="cls-2" d="M95.83,183c-.43.65-.28,1,.51,1.44s1.22.29,1.43-.43.15-.72-.86-1.15c-.72-.36-.72-.36-1.08.14" transform="translate(-5.56 -86.84)"/><path class="cls-2" d="M202.77,184.8c-2.09.64-3.16,2.66-2.3,4.24.14.28.64,1.29,1.08,2.29s1.22,2.59,1.65,3.52c.93,2,1.29,2.3,2.87,2.3,2.51,0,4.52-2.08,3.73-3.88-.28-.79-.28-.79-1.36-.36-.79.36-.86.51-.57,1.51.07.29-1.08,1.15-1.51,1.08s-.79-1-2.8-5.24c-1.51-3.24-1.51-3.31-.58-3.81s1.08-.36,1.65.65c.22.36.22.36,1.08-.08,2.08-.93-.5-3-2.94-2.22" transform="translate(-5.56 -86.84)"/><path class="cls-2" d="M94.69,185.44c-.29.36-4.46,9-4.89,10.13-.29.79.79,2.37,1.37,2,.07-.07.93-1.72,1.94-3.81,4.09-8.47,3.87-7.68,2.58-8.25-.65-.22-.86-.22-1-.08" transform="translate(-5.56 -86.84)"/><path class="cls-2" d="M187.76,191.12c-.43.14-.79.36-.79.5s1.65,5,2.08,6a4.3,4.3,0,0,1,.22.72c.07.21.35,1.15.71,2,.65,1.8.65,1.8-.57,2.15-.93.29-.93.36-1.87-2.58-1.15-3.45-2.58-7.54-2.66-7.61A3.17,3.17,0,0,0,183,193a15.33,15.33,0,0,0,1.15,3.67.76.76,0,0,1,.14.43,21,21,0,0,0,1.15,3.3c.07.22.21.65.29.94.5,2.37,1.79,3.37,3.95,2.87s3.3-1.87,2.94-3.45c-.14-.57-2-6-2.73-7.9-.07-.14-.21-.65-.43-1.15-.57-1-.57-1-1.72-.57" transform="translate(-5.56 -86.84)"/><path class="cls-3" d="M107.4,191.69c-.72.29-.79.5-1.3,1.73-.28.79-.57,1.58-.64,1.79-.58,1.44,0,2.51,1.86,3.23,1.51.58,1.51.58,1.08,1.73-.21.5-.43,1.22-.57,1.58a1.1,1.1,0,1,1-2.16-.43c.07-.79.07-.79-.57-1.08-2.37-1.08-2.23,2.22.14,3.45s4.24.5,4.89-1.58c.07-.29.35-1,.57-1.58.65-1.8.29-2.45-1.87-3.24-1.51-.57-1.58-.64-1.22-1.36a2.59,2.59,0,0,0,.29-.79,2.38,2.38,0,0,1,.14-.58c.07-.21.29-.57.43-.93.29-.72.72-.79,1.66-.29.57.29.79.87.43,1.08-.51.29-.15.79.79,1.08,1.22.36,1.36.29,1.36-1.15-.07-2.16-3-3.66-5.31-2.66" transform="translate(-5.56 -86.84)"/><path class="cls-2" d="M124.63,193.13a.94.94,0,0,0-.14.57,10.68,10.68,0,0,1-.29,1.51c-.14.58-.36,1.58-.5,2.23-.5,2.37-.79,3.73-.94,4.38-.07.36-.28,1.15-.35,1.79s-.36,1.66-.51,2.23a11.88,11.88,0,0,0-.28,1.94l-.08.79.87.21c1,.29,1.14.15,1.43-1.29.07-.43.29-1.43.5-2.3.36-1.65.51-2.51.79-4,.15-.57.29-1.51.44-2.08l.21-1h.79c1.51,0,1.51.36.14,6.54-.14.72-.35,1.72-.43,2.23a10.23,10.23,0,0,1-.36,1.65c-.28.86-.21.93.94,1.15s1.08.64,2-4.31c.21-1.15.5-2.44.86-4,.79-3.31.22-4.74-1.87-4.74-.57,0-1.65-.36-1.65-.58a12.68,12.68,0,0,1,.22-1.51c.21-1.14.21-1.36-.07-1.5a4.39,4.39,0,0,0-1.73.07" transform="translate(-5.56 -86.84)"/><path class="cls-2" d="M149.77,196.22a6.43,6.43,0,0,0-1.37.79l-.64.57v2.59c0,3.59.28,4,3,4,1.65,0,1.65-.08,1.58,3.23l-.07,2.73-.5.07c-1.15.14-1.37-.07-1.51-1.22-.22-1.94-.22-1.94-1-1.94-1.22,0-1.29.07-1.29,1.29,0,2.87,2.08,4.24,4.89,3.23,1.72-.57,1.86-.93,1.79-4.66-.07-4-.07-4-2.66-4.24-2.08-.15-1.94.07-1.94-2.44s0-2.52,1.08-2.52.94,0,1.08,1.51l.14,1.08h2V199c-.07-2.3-1.94-3.52-4.59-2.8" transform="translate(-5.56 -86.84)"/><path class="cls-2" d="M168.8,196.58c-.29.07-1.22.28-2,.5-1.3.29-1.44.36-1.44.72s.43,1,.65,1c0,0,.64-.14,1.43-.29,2.16-.5,2.45-.43,2.66.22s-.14,1-1.15,1.15c-2.15.36-3,1.44-2.44,3.16.07.29.29,1.22.5,2,1,4.95,1,4.88,4.89,4.09,2.8-.57,2.73-.5,2.51-1.58-.07-.43-.29-1.29-.36-1.79s-.29-1.29-.36-1.65c-1.58-7.54-1.43-7.11-2.22-7.47a4.18,4.18,0,0,0-2.66-.07" transform="translate(-5.56 -86.84)"/><path class="cls-1" d="M170.74,201.67c.07.22.28,1.15.5,2.09s.36,2,.5,2.51c.22,1.15,0,1.51-1,1.51s-.94.14-1.51-2.95a23.28,23.28,0,0,0-.58-2.44.83.83,0,0,1,.44-.93c.79-.36,1.43-.22,1.65.21" transform="translate(-5.56 -86.84)"/><path id="path1" class="cls-4" d="M131.45,86.91a5.76,5.76,0,0,0,1.66,0c.43-.07,0-.07-.87-.07s-1.29,0-.79.07M186,111.62c-.07.29,0,.5.29.5s.21-.5,0-.64-.22,0-.29.14m-7.9.43h2.52c.71,0,.14-.07-1.3-.07s-1.94.07-1.22.07m-44.74.36a1,1,0,0,0,.65,0c.14-.07,0-.07-.36-.07s-.5.07-.29.07m71.24,10.91c0,6,0,8.48.07,5.46V117.87c-.07-3-.07-.58-.07,5.45M81.4,113H86c1.29,0,.21-.07-2.3-.07s-3.59.07-2.3.07M5.56,123.11c0,1.15.08,1.87.22,1.87s.21.21.21.57a42.56,42.56,0,0,0,1,5.17c.22,1,.36,1.51.86,3.16s3.45,10.34,3.59,10.49a.76.76,0,0,1,.15.43,1.73,1.73,0,0,0,.14.64,12.52,12.52,0,0,1,.65,1.73c.28.79.57,1.72.71,2.08s.29.93.44,1.22l.14.58,29.87.07c16.45.07,30,0,30.17-.07.43-.22.35-.58-.79-2.59-.58-1.08-1.87-3.66-3-5.82a88.26,88.26,0,0,1-4.16-9.12,46.62,46.62,0,0,1-2.73-10.05c-.15-.72-.22-1.51-.29-1.73l-.07-.43H5.56v1.8m230-1.58a2.7,2.7,0,0,0-.14.86,11.55,11.55,0,0,1-.14,1.37c-.08.43-.29,1.29-.36,2a66.46,66.46,0,0,1-3.09,9.91,12.19,12.19,0,0,1-.65,1.36c-.79,2-5.17,10.7-6.46,12.86-.79,1.29-3.45,1.22,30,1.15l30.09-.08.57-1.65c.29-.93.72-2.15.93-2.73a15.78,15.78,0,0,0,.51-1.51c.36-.79.43-1.22.79-2.15.14-.5.36-1.08.43-1.29.5-1.3,1.15-3,1.15-3.23a2.28,2.28,0,0,1,.14-.58c.07-.14.43-1.22.79-2.3s.65-2.15.72-2.29a3.17,3.17,0,0,0,.21-.87c.08-.28.22-1,.36-1.58a39.1,39.1,0,0,0,1.37-7.75l.07-1.8H264.17c-25.86,0-28.51.07-28.66.29m-15,1.87a2.22,2.22,0,0,1-.14.57c-.07.29-.07.29.14.14a.54.54,0,0,0,.15-.57c-.07-.14-.15-.22-.15-.14m-16.15,12.28a1.44,1.44,0,0,0,.07.79c.14.28.21.21.21-.43,0-.87-.07-1-.28-.36m-59.11,1.22c-.14.21.07.21.58,0s.36-.15-.07-.15a1.06,1.06,0,0,0-.51.15m-9.62.86a1.78,1.78,0,0,0,.86,0c.22-.07.07-.07-.43-.07s-.65.07-.43.07m-4.09.22a1.78,1.78,0,0,0,.86,0c.21-.08.07-.08-.43-.08s-.65,0-.43.08m-90.2,23c-.15.28.14,1,1.07,2.65.29.58.87,1.58,1.23,2.23,3.51,6.61,11.27,15.94,17.88,21.62.79.64,1.43,1.22,1.51,1.29s4.74,3.73,6,4.67c1.79,1.29,5.31,3.66,7.61,5.09,1,.58,2,1.23,2.22,1.37.58.36,1,.57,4.39,2.37,3.16,1.65,3.73,1.94,5,2.51.5.22,1.51.72,2.23,1a145.56,145.56,0,0,0,18.74,6.68c.29.07,1.58.43,3,.79,2.51.64,6,1.43,7.75,1.79.51.07,1.66.29,2.52.5,1.79.36,3,.51,6,.94,3.3.43,4.45.57,7.54.79,1.58.14,3.23.29,3.66.36,1.08.21,20,.21,20,0a1.91,1.91,0,0,1,1.07-.22,22,22,0,0,0,2.73-.21c.94-.08,2.45-.29,3.45-.36,1.65-.15,3.66-.43,6.9-.94a25.06,25.06,0,0,0,2.8-.5c.86-.14,1.93-.36,2.44-.43,2.3-.43,3-.57,4.59-.93,2.23-.51,8.69-2.23,9.12-2.45.22-.07,1.44-.5,2.8-.93s3-1,3.67-1.22,1.86-.65,2.58-.93,1.51-.58,1.73-.65,1.22-.5,2.29-1c5-2.16,12.21-5.61,12.57-6.18.15-.14.29-.29.43-.29a72.1,72.1,0,0,0,6.25-3.66c2.16-1.37,7-5,9-6.54,2.73-2.22,3.16-2.65,5.46-4.74a82.94,82.94,0,0,0,14.72-17.95c2.3-3.66,3.73-6.82,3.09-6.82H214l-.72.79c-.43.43-1.29,1.43-2.08,2.3a46.83,46.83,0,0,1-4.52,4.38,38,38,0,0,1-4.17,3.44c-1.94,1.44-5.1,3.52-6.25,4.17-.43.21-1.43.79-2.22,1.29a37.05,37.05,0,0,1-6.54,3.16c-1.65.72-3.16,1.37-3.37,1.44s-.79.29-1.3.5a6.2,6.2,0,0,0-1.29.5,81.16,81.16,0,0,1-7.9,2.45l-1.94.43c-2.15.5-3.88.86-5.1,1.07-.64.08-1.72.29-2.29.36a112.79,112.79,0,0,1-25.57.58c-5.75-.72-11.2-1.65-12.28-2.09-.36-.14-1.37-.35-2.73-.64-.29-.07-.65-.15-.86-.22s-1.08-.36-1.87-.57-1.65-.5-1.87-.58l-1.86-.64a15.94,15.94,0,0,1-1.65-.65,1.09,1.09,0,0,0-.51-.14,1.1,1.1,0,0,1-.64-.22,13.63,13.63,0,0,0-1.51-.64,83.92,83.92,0,0,1-8.69-4.24c-1.15-.65-2.16-1.22-2.23-1.22s-5.67-3.74-7-4.81a76.32,76.32,0,0,1-8.55-8.05c-.29-.36-.86-.93-1.22-1.36l-.65-.72L63,160.67c-18.32,0-21.55.07-21.69.29m121.44,13.42c-.36.15-.29.15.14.15s.5-.07.5-.15-.07-.21-.64,0M84.06,176a4.87,4.87,0,0,0,.79.44c.43,0,1.94,1.22,1.94,1.58s-.08.43-.15.43-.21.14-.28.36c-.15.57-.79.43-2.23-.44s-1.37-.93-1.51-.5A6.43,6.43,0,0,1,82,179c-1.36,2-1.36,2.37-.28,3,.72.36.79,1,.21,1.79l-.43.58-.93-.51c-1.08-.57-1.29-.64-1.51-.21s-3.16,5.24-3.45,5.53c-.14.21-2.22-.93-2.22-1.22a8.89,8.89,0,0,1,.93-1.65,12,12,0,0,0,.93-1.66c0-.07.08-.21.15-.21a15.3,15.3,0,0,0,1.29-1.87c.65-1,1.29-2.22,1.58-2.58s.93-1.44,1.44-2.3c1.58-2.52,2.51-2.95,4.38-1.73m70.95-.5a1.25,1.25,0,0,0,.72,0c.14-.07,0-.07-.43-.07s-.51,0-.29.07m-9.55.22a3.13,3.13,0,0,0,.72.14c.28,0,.28,0-.08-.14-.64-.22-1.14-.22-.64,0m76.27.72a4.87,4.87,0,0,1,1.36,1.79c0,.07.36.65.72,1.29,1,1.73,1.08,2.59.21,2.59a18.15,18.15,0,0,0-2.65,1.72,9.91,9.91,0,0,0,1.72,3c.29,0,1.29-.65,1.29-.86a2.11,2.11,0,0,0-.28-.65c-.36-.65-.36-.65.64-1.29s1.22-.72,1.65,0c1.15,1.94-.64,4.52-3.37,4.74-1.73.14-2.3-.22-3.45-2.3-.14-.22-.43-.79-.72-1.29s-.64-1.08-.72-1.23a10.06,10.06,0,0,1-.93-1.58c-.36-.71-.79-1.43-.93-1.65-1.65-2.37,2.87-6,5.46-4.23m-2.81,1.86c-.5.29-.64,1.22-.14,1.51.07.07.36.58.65,1.08.57,1.15.64,1.15,1.51.5l.64-.5-.64-1.15c-.72-1.22-1.15-1.8-1.37-1.8a3.24,3.24,0,0,1-.65.36m-121.65,4.6c1,.5,1.15,1,.5,1.72l-.43.51-.93-.36c-1-.43-1.29-1.08-.72-1.87.36-.58.58-.58,1.58,0m108.15,1.79c1.58.79,1.73,2,.29,2.59-.93.36-1.36.29-1.51-.22s-.5-.57-1.15-.35-.79.57,0,2.15c.36.79,1,2.15,1.44,3,1.29,2.72,1.36,2.87,1.58,3.23s.57.28,1.29-.22c.29-.21.36-.36.22-.5-.5-.5-.22-1.22.57-1.58,1.3-.65,1.73-.43,1.94.86.36,2.8-4.31,5-6.25,2.87a3,3,0,0,1-.64-.79c0-.07-.43-1.07-.94-2.15s-1.15-2.44-1.43-3-.58-1.22-.72-1.5c-1.22-2.59,2.51-5.75,5.31-4.39m-109.3.94c.94.43.94.43-.07,2.51-.43.94-1.58,3.31-2.51,5.24s-1.8,3.74-1.94,4c-.36.71-.94.71-1.58-.15s-.72-1.15-.07-2.58c.28-.58,1.07-2.23,1.72-3.52s1.22-2.59,1.36-2.8.58-1.15,1.15-2.37c.43-.86.79-.94,1.94-.36m93.29,6c.21.5.43,1.08.5,1.29s.29.79.43,1.3a4.2,4.2,0,0,0,.51,1.22,2.1,2.1,0,0,1,.14.64c0,.22.07.43.14.43a27.51,27.51,0,0,1,1.37,3.74c.5,1.72-.79,3.8-2.44,3.8a.54.54,0,0,0-.44.22c-.35.5-2.8,0-3.37-.79a40.85,40.85,0,0,1-1.94-5.39c-.22-.64-.43-1.36-.5-1.58-1.37-3.52-1.37-3.95-.15-4.31s1.3-.28,1.44.08a2.66,2.66,0,0,0,.29.71c.07.22.28.79.43,1.3a6.2,6.2,0,0,0,.5,1.29c.07.22.43,1.15.72,2.08.79,2.37,1,2.95,1.15,3.38.07.21.21.57.29.79.14.5.64.72.93.43A1.08,1.08,0,0,1,190,202c.36,0,.36-1.36-.07-1.79a1.14,1.14,0,0,1-.14-.58c0-.21-.07-.5-.22-.5a.83.83,0,0,1-.21-.43,3.18,3.18,0,0,0-.29-.86,2.56,2.56,0,0,1-.29-.86.76.76,0,0,0-.14-.43,37.8,37.8,0,0,1-1.65-4.82c-.07-.43,0-.5.5-.79,1.36-.57,1.51-.5,1.94.65m-78.64,0c2.66,1.22,3.09,4.88.5,4.09-1.14-.36-1.29-.57-1-1.36.21-.5.14-.58-.5-.93l-.72-.36-.29.43a1.66,1.66,0,0,0-.29.64,10.52,10.52,0,0,1-.43,1.37l-.43,1.15.72.28a3.93,3.93,0,0,0,.93.29c1.73.07,2.52,2.87,1.22,4.38a1.14,1.14,0,0,0-.14.58c0,1.51-2.08,2.8-3.59,2.37-2.87-.86-4.45-3.16-3-4.46l.44-.43,1,.43c.93.44,1,.44.93,1.23s0,.79.65,1l.72.22.29-.79c.14-.43.43-1.15.64-1.66l.36-.86-.57-.28-1.22-.51a2.34,2.34,0,0,1-1.51-3.3c.07-.14.36-.86.57-1.51.65-2.44,2.37-3.16,4.74-2m15.3,1.29c.79.22.93.29.86.72-.36,2.8-.36,2.8,1.44,3.09,2,.29,2.37,1.51,1.58,4.95-.15.79-.36,1.73-.43,2.16s-.29,1.36-.51,2.15a21.44,21.44,0,0,0-.43,2.3c-.21,1.72-.43,2-1.29,1.87-1.65-.29-2-.93-1.37-2.37a2.46,2.46,0,0,0,.15-.86,3,3,0,0,1,.21-1.08,6.18,6.18,0,0,0,.36-1.58c.22-1.22.36-2.15.79-4.09.15-.79.29-1.44.29-1.44a4.16,4.16,0,0,0-.57-.22c-1.08-.35-1.23-.28-1.44.87-.43,2.15-.58,2.8-.86,4-.15.72-.36,1.65-.43,2.08a5.76,5.76,0,0,1-.29,1.22c-.07.29-.22.86-.29,1.37-.14,1.15-.57,1.36-1.79,1-.94-.29-1.3-.72-.94-1.08a1,1,0,0,0,.22-.64,11.5,11.5,0,0,1,.29-1.58c.57-2.3,1.22-5.53,1.58-7.4a6,6,0,0,1,.28-1.29,5.24,5.24,0,0,0,.29-1.15c.72-3.52.65-3.45,2.3-3m26.57,3.16a2.56,2.56,0,0,1,1.8,2c.43,2.09.28,2.45-1.23,2.45-1.29,0-1.36-.08-1.36-1.44v-1.22h-.72c-1,0-1.08.14-.93,2.37l.07,2,1.58.07c2.87.22,3,.36,3,4.53,0,4.38-.43,5-3.67,5-2.44,0-3.3-.79-3.44-3.09-.15-1.79,0-1.94,1.15-1.94,1.36,0,1.5.15,1.58,1.51.07,1.58.14,1.65,1,1.65s.79.22.79-2.87c-.07-2.66-.14-2.8-1.36-2.58-2.59.35-3.24-.65-3.38-4.74-.14-3.09,2.3-4.82,5.1-3.67m18.89.43c.72.43.93,1.22,1.58,4.82.28,1.58.86,4.3,1.15,5.31.43,1.44.14,2.08-.79,2.37a12.87,12.87,0,0,1-3.88.65c-1.8,0-2.16-.44-2.66-3.09a19.57,19.57,0,0,0-.5-2.23c-.72-3.09-.36-4.09,1.51-4.45,1.5-.29,1.79-.43,1.79-1.08s.22-.64-2.15-.14-2.16.43-2.37-.15c-.43-1.14.07-1.58,2.3-1.86a6.22,6.22,0,0,0,1.22-.29,4.14,4.14,0,0,1,2.8.14m-2.37,5.17c-.36.29-.36.22.14,3.31.36,2.3.65,2.87,1.37,2.66,1.07-.29,1.14-1.15.21-4a5.65,5.65,0,0,1-.14-1.15c0-1-.79-1.36-1.58-.79" transform="translate(-5.56 -86.84)"/><path id="path2" class="cls-5" d="M128.29,86.91a88.41,88.41,0,0,0-13.5,1.51c-9.62,1.8-18.52,7.11-22.76,13.43a20.73,20.73,0,0,0-3.66,10L88.22,113l-5.89.08c-3.23.07-6,.14-6.1.21-.58.36.21,7.18,1.29,11.35.36,1.36,1,3.52,1.22,4,.07.21.29.72.51,1.22,5.17,13.43,15.65,25.64,29.8,34.47a17.16,17.16,0,0,0,1.94,1.15,5.38,5.38,0,0,1,.79.43c.86.5,5.38,2.87,6.82,3.45l1.65.72c.36.14,1.15.5,1.65.64a7.13,7.13,0,0,1,1.08.51,1.13,1.13,0,0,0,.57.14,1.14,1.14,0,0,1,.58.14c.14.15.79.36,3.81,1.22a69.22,69.22,0,0,0,12.28,2.52c4.16.5,14.43.21,20.1-.58,2.3-.36,6.25-1.07,8.12-1.58.65-.14,1.44-.36,1.79-.43s1.15-.29,1.66-.43,1.22-.36,1.5-.43.65-.22.87-.29.79-.28,1.29-.43a4.12,4.12,0,0,0,1.22-.5.87.87,0,0,1,.57-.14,1,1,0,0,0,.58-.22c.14-.07,1.08-.5,2-.86a65,65,0,0,0,9.48-4.67,7.61,7.61,0,0,1,1.15-.65c.21,0,4.52-2.94,6-4.09a66.07,66.07,0,0,0,15.3-16.16c.71-1.08,1.36-2,1.36-2.08s.43-.72.86-1.58a36.74,36.74,0,0,0,2.23-4.45,43,43,0,0,0,1.65-4c.14-.51.36-1.08.43-1.3s.65-1.94.94-3.09c.07-.35.28-1.14.43-1.65a57.09,57.09,0,0,0,1.65-13.93c0-.21-1.51-.21-8.48-.14-8,.07-8.47.07-8.47-.22v-12c0-6.46,0-11.71-.07-11.71a3.88,3.88,0,0,0-.65,1.73,14.8,14.8,0,0,1-.72,2.65,10.11,10.11,0,0,0-.36,1c-1.79,5-6.32,11.13-11.34,15.44-.65.57-1.29,1.08-1.44,1.22s-.64.5-1.22.93a6.59,6.59,0,0,0-1.08.87c0,.07,3.81.14,8.41.21l8.4.07.07,12.5.07,12.49-.36-.64a4.49,4.49,0,0,1-.5-1.22c-1.22-6.9-7.4-15.37-15.73-21.62a4.08,4.08,0,0,1-1.29-1.22c0-.14-.07-.29-.14-.29s-.15.15-.15.36a31.94,31.94,0,0,1-3.37,5.46c-.07.07-.43.5-.79.93-3.67,4.53-10.06,9.34-16.52,12.43a30.67,30.67,0,0,1-3.81,1.65,7.2,7.2,0,0,0-1.22.5c-.64.29-3.8,1.29-4.81,1.58-3.3.86-4.88,1.22-7.4,1.65a20.35,20.35,0,0,0-2.58.51,13.12,13.12,0,0,1-1.65.14,9.15,9.15,0,0,0-1.51.14c-4.17,1.08-22.12.51-27.43-.93-.36-.07-1.3-.29-2.16-.5A51.57,51.57,0,0,1,107.4,134c-.22-.07-1.08-.43-1.87-.79-8-3.23-14.15-9.33-16.37-16.3a12.14,12.14,0,0,1-.72-4c.07-.07,2.44-.14,5.38-.14,6.4,0,6.32,0,6.18-1.44-.5-4.38,2.51-9.69,6.32-11.27a9,9,0,0,1,4.52-.94c4.31,0,9,3,10,6.25.07.21.28.86.5,1.36a10.09,10.09,0,0,1,.5,3.31l.07,2.3,7.54-.15c4.17-.07,18.53-.21,31.89-.29s24.34-.21,24.49-.35,0-1-.22-1c-.07,0-.14-.07-.14-.22,0-.71-3.52-5.17-5.89-7.46-5.31-5.25-10.34-8.33-19-11.71a67.57,67.57,0,0,0-10.84-2.94,81,81,0,0,0-10.27-1.3c-2.59.07-8.69,0-11.21.07M81.47,175.46a2.49,2.49,0,0,0-.86.86c-.5.72-2.51,3.88-3.09,4.89-.14.28-1.15,1.86-2.15,3.52A21.94,21.94,0,0,0,73.5,188a6.49,6.49,0,0,0,1.87,1.22c.28.07,3.23-4.24,3.73-5.53.22-.43.58-.43,1.44.14s1.08.51,1.58-.36c.36-.71.29-1.22-.29-1.36-.21-.07-.14.07.07.29.86.93-.28,1.79-1.51,1.15s-1.14-.65-2.8,2.22c-1.86,3.16-2.22,3.45-3.3,2.73-.86-.57-1.29.29,2.94-6.46,4-6.32,3.88-6.18,4.67-6.47.29-.14.43-.21.29-.21a3.34,3.34,0,0,0-.72.14m1.44.15a16.77,16.77,0,0,1,3.73,2.29c0,1.08-.72,1.3-1.86.58s-1.15-.58-.08.14,1.58.72,1.73.22c.07-.22.14-.36.28-.36.36,0,.15-.94-.28-1.15a13,13,0,0,1-2.16-1.22,3.25,3.25,0,0,0-1.36-.58h-.43l.43.08m135.3.79c-.79.43-2,1.65-2,2.08,0,.21.07.14.28-.22a4.15,4.15,0,0,1,.58-.79,8.15,8.15,0,0,1,2-1.22c.36-.07.36-.07,0-.07a1.45,1.45,0,0,0-.86.22m3.16,0a17,17,0,0,1,3.16,4.95c0,.22.07.29.14.22.22-.15,0-.79-1-2.37a8.83,8.83,0,0,1-.93-1.66,3.77,3.77,0,0,0-1.65-1.5c-.22.07-.14.14.29.36M81.62,179.2c-1.3,2.08-1.3,2.15-.65,2.51l.5.29-.43-.36-.43-.36.36-.72a23.69,23.69,0,0,1,1.22-2.08,4.51,4.51,0,0,0,.43-.79c0-.29.29-.29.43,0a.62.62,0,0,0,.36.21c.22,0-.43-.57-.65-.57a14.76,14.76,0,0,1-1.14,1.87M219.07,178c-.22.14-.29.28-.15.28a.65.65,0,0,0,.44-.21c.28-.29.64,0,1.5,1.58s.87,1.43-.07,1.94c-.79.43-.79.36-1.51-1a7.41,7.41,0,0,0-.5-.79,1.51,1.51,0,0,1-.21-.79c0-.72-.29-.79-.29-.07,0,.57,1.65,3.16,2,3.09.79,0,1.65-1,1.29-1.58-.14-.29-.5-.86-.79-1.37-.79-1.29-1.08-1.51-1.72-1.07m-3,1.5c0,.65.79,2.52,1,2.3.07-.07-.15-.43-.36-.79a4.83,4.83,0,0,1-.58-1.43l-.07-.72v.64m1.15,2.66a19.12,19.12,0,0,0,1.8,2.8,17.27,17.27,0,0,0-1.73-2.94c-.14,0-.14.07-.07.14m5.1.65a10.7,10.7,0,0,0-1.22.93q-.11.21.21,0a10.49,10.49,0,0,1,1.8-1.15.62.62,0,0,0,.36-.29c.43-.43,0-.28-1.15.51m-126.61.07c-.57.86-.43,1.36.58,1.79s1.36.36,1.5-.21c.08-.14,0-.14-.21.07-.86.86-2.44-.57-1.65-1.58l.36-.43.79.43c.57.36.79.58.79.79s0,.29.14.07,0-.64-.93-1.15c-.87-.36-1-.36-1.37.22m129.12,1.08c-.79.5-.93.93-.57,1.36.07.07.14-.07.07-.29-.14-.93,1.58-1.58,2.08-.79,1,1.51-.71,3.95-3,4.31-1.8.29-2.37-.14-3.59-2.22a4.55,4.55,0,0,0-.65-.94c-.22.22,1.72,3,2.37,3.23,2.87,1.23,6.46-2.08,5-4.52-.58-.86-.65-.86-1.73-.14m-3.59.21a11.2,11.2,0,0,0,1.08,2c.22.36.57.72.72.72.5,0,1.51-.79,1.51-1.08s-.08-.28-.08,0a2.5,2.5,0,0,1-1.43.94c-.15,0-.36-.36-.58-.72s-.43-.72-.5-.72-.14-.07-.14-.21c0-.36-.58-1.23-.58-.94m-18.09.36c-.44.22-.29.22.93.22,1.87,0,3.3,1.43,2.15,2.15-.28.14-.28.22,0,.22s.36-.22.43-.43c.29-1.44-2-2.81-3.51-2.16m-1.66.72a3,3,0,0,0-1.22,3.81c.29.5.79,1.65,2.37,4.88a15.14,15.14,0,0,1,.79,1.79,1.41,1.41,0,0,0,.36.58l.36.43-.29-.58c-.14-.28-.43-1-.71-1.5-.79-1.8-2.45-5.25-2.73-5.75a2.86,2.86,0,0,1,1.29-3.8c.43-.29.72-.51.57-.51-.07.22-.43.43-.79.65m-107.14.43c-.36.65-.15.72.21.07.15-.29.22-.57.15-.57s-.29.21-.36.5m1.36-.07c1.08.5,1.08.64.07,2.73-3.23,6.75-4.52,9.19-4.67,9.33s-.79-.14-1.14-.86-.44-.72.93-3.59c.5-1.15,1.22-2.58,1.51-3.23A13.61,13.61,0,0,1,93,188.6c.08-.07.08-.14,0-.14s-.93,1.65-3,6c-.79,1.65-.79,2,.07,2.95s.86,1.15,3.37-4c.94-1.94,2.09-4.31,2.52-5.25a12.67,12.67,0,0,0,.79-1.94,3.37,3.37,0,0,0-1.8-.93c.07-.07.29.07.72.29m107,1c-.71.36-.64.65.72,3.52.58,1.22,1.15,2.52,1.37,2.87s.36.58.36.51,0-.22-.08-.43-.5-1-.86-1.73-.93-1.94-1.22-2.65c-.64-1.37-.64-1.8,0-1.94.22-.07.36-.15.36-.29s0-.22-.65.14m1.44.22c.36.86.72,1.08,1.37.57.35-.28.28-.28-.22-.07s-.57.22-.72-.07c-.5-.86-.64-1.08-.43-.43m-110.59.43a4,4,0,0,0-.36.86,4.14,4.14,0,0,0,.5-.72,4,4,0,0,0,.36-.86c-.07,0-.29.29-.5.72m95.22,3.52a2.29,2.29,0,0,1,.58,1.15c.21.57.36.86.36.64,0-.57-.65-1.93-.94-1.93s-.21,0,0,.14m-81.44.72a2.78,2.78,0,0,0-1.29,1.65c0,.21.15,0,.36-.43a2.75,2.75,0,0,1,2.87-1.37c.43.08.79,0,.72-.07a5.1,5.1,0,0,0-2.66.22m79.5-.07a1.53,1.53,0,0,0,.22,1c.21.43.29.5.21.22s-.14-.65-.21-.87,0-.43.21-.5.29-.07,0-.14c-.14.07-.35.14-.43.29m-76,.43a9,9,0,0,1,1.22.86c.58.57.65.57.29.07a3.23,3.23,0,0,0-1.8-1.29c-.14.07,0,.21.29.36m72.89.5a4.32,4.32,0,0,0-.79.29c-.28.07-.28,1.07-.07,1.5.07.15.29.72.5,1.22s.36,1.08.44,1.3.43,1.22.79,2.22c.64,2.09.93,2.66.93,2.09a1.74,1.74,0,0,0-.14-.65,21.22,21.22,0,0,1-1.15-3.16,2.3,2.3,0,0,0-.15-.57,14.32,14.32,0,0,1-1.07-3.52c0-.15.43-.43.79-.58,1-.36,1.14-.36,1.29.07s.07.22.07-.07-.65-.43-1.44-.14m24.49.5c-.64.36-1.07,1.44-.57,1.44.07,0,.14-.22.07-.51-.07-.5.93-1.14,1.65-1.14s.72,1.86.07,2.94c-.79,1.29-4,2.15-4.88,1.36-.14-.14-.29-.14-.29-.07,0,.43,1.58.65,2.66.43,2.3-.5,3.73-2.44,3-4.16-.22-.79-.65-.86-1.73-.29m-83.52-.07c-.29.29-.07.36.65.29s.72-.15.43-.22c-.5-.21-.93-.21-1.08-.07m-14.79.57c.72.36.86.58.5,1.15-.5.86,1.65,1.94,2.3,1.15a2.72,2.72,0,0,0,.21-2.08c-.07-.07-.14.36-.14.93,0,1.37-.14,1.44-1.36,1.08-.94-.29-1.3-.79-.79-1.08s-.36-1.43-1.22-1.36c-.15-.07.07.07.5.21m16.66-.21c.14.07.21.36.21.72,0,.57,0,.57.22.14s.07-.93-.36-.93c-.14,0-.21,0-.07.07m63.41.14c0,.5.72,2.37.72,1.94a5.79,5.79,0,0,0-.36-1.29c-.14-.5-.36-.79-.36-.65m-65.57.65c0,.36.08.5.08.36a2,2,0,0,0,0-.65c-.08-.14-.08-.07-.08.29m-18.67.14a7.48,7.48,0,0,0-.21.79.38.38,0,0,1-.22.36c-.36.22-.21,2.08.22,2.44a4.86,4.86,0,0,0,1.86,1c.15,0-.07-.15-.5-.36-1.65-.79-1.94-1.58-1.22-3.52a2.63,2.63,0,0,0,.29-1.08c-.07,0-.15.07-.22.36m2.66,0a.54.54,0,0,1-.22.5.86.86,0,0,0-.21.44c0,.21.14.14.29-.22a2.23,2.23,0,0,0,.21-.86c-.07-.15-.07-.07-.07.14m96.88-.21c0,.86,1.08,1.94,1.65,1.65.29-.22.29-.22-.14-.15s-.51,0-.94-.71-.57-1-.57-.79m-19.75.21a10,10,0,0,0,.57,1.8c.29.86.65,1.79.72,2.08s.15.36.15.22a13.46,13.46,0,0,0-.44-1.58c-.79-2.23-1-2.73-1-2.52m2.3.43a18.55,18.55,0,0,0,1.36,3.74.8.8,0,0,0-.14-.65c-.07-.21-.43-1-.65-1.72-.57-1.73-.64-1.87-.57-1.37m-61.19.22c0,.14-.07.5-.14.93-.15.72.43,1.15,1.51,1.08.35,0,.35-.07-.08-.14-1.07-.36-1.29-.51-1.15-1.3.08-.43.08-.72,0-.72s-.14.08-.14.15m-2.51.14a.94.94,0,0,0-.07.72v.57l.14-.64c.14-.72.14-.86-.07-.65m-16.45,1.08c-.14.36-.21.57,0,.72s.15.14.07-.07a.45.45,0,0,1,.08-.51c.14-.14.21-.36.14-.43s-.22.07-.29.29m42,.14c-1.72.51-2.58,2.66-2,5,.15.5.15.14.15-1.37v-2l.64-.57a4.16,4.16,0,0,1,3.31-.94c.57.08.71.08.5-.07a4,4,0,0,0-2.59,0m3,.22c.36.36,1,.5.72.21a.91.91,0,0,0-.58-.28c-.07,0-.14,0-.14.07m16.37,0a2.47,2.47,0,0,1-.79.29c-.79.14.15.07,1.58-.15a2.52,2.52,0,0,1,2.3.79c.15.29.15.36.15.07,0-.71-2.73-1.5-3.24-1m-45.38.86a26.67,26.67,0,0,0-.51,2.73c-.07.65.22-.58.72-2.51.22-1.08,0-1.3-.21-.22m67.43-.36c.07.14.22.72.43,1.37s.36,1,.43.86a8.26,8.26,0,0,0-.86-2.44v.21m-62,.29c1.3.64,1.44,1.51.87,3.95-.08.43-.36,1.43-.51,2.15a16.41,16.41,0,0,0-.36,2.09L129,206l.22-.71c.07-.44.29-1.15.36-1.58a19.55,19.55,0,0,1,.5-2.16c.72-2.94.57-3.81-.72-4.52-.79-.36-1-.29-.29.07m24.71-.22a1.91,1.91,0,0,0,.29.51,3.55,3.55,0,0,1,.28,1.65v1.29h-2l-.14-.72a8.16,8.16,0,0,1-.14-1.22c0-.29-.08-.57-.15-.57s-.14.5-.07,1.15c.07,1.43.14,1.5,1.44,1.5s1.43-.07,1.22-1.72c-.15-1.08-.79-2.73-.72-1.87m12.57.07c-.15.22.21.22.71,0s.29-.14-.14-.14a.7.7,0,0,0-.57.14m-56.88.58c1.36.65,1.79,1.51,1.29,2.73-.07.21-.07.29.07.21,1.08-.64-.36-3.3-1.79-3.3-.15,0,0,.14.43.36m55.73-.07a.46.46,0,0,0,0,.43c.07.07.14,0,.14-.22a.39.39,0,0,1,.36-.36c.29-.07.29-.07,0-.07s-.43,0-.5.22m-15.08.43a22.67,22.67,0,0,0,.07,4.52,9.06,9.06,0,0,0,1.79.22c2.59.14,2.59.21,2.66,4.24.07,3.66-.07,4.16-1.65,4.66-.43.15-.72.29-.58.36.36.15,1.44-.43,2-1.08s.5-.64.5-3.51c0-4.31-.15-4.6-2.95-4.74l-1.65-.15a21.45,21.45,0,0,1,.07-4.23,1.35,1.35,0,0,1,.72-.22c.5-.07.5-.07-.14-.14a1.3,1.3,0,0,0-.86.07m22.12,0c0,.5.28,1.29.28.86a2.19,2.19,0,0,0-.14-.72c-.07-.29-.14-.29-.14-.14m-46.33.29c-.07.07-.21.86-.43,1.65s-.43,1.79-.5,2.15a8.35,8.35,0,0,0-.14,1c0,.5.36-.72.93-3.74.22-1.15.36-1.22,1.44-.86a3.57,3.57,0,0,0,.57.22s-.14.64-.29,1.43a20.28,20.28,0,0,0-.35,2.23c-.08.43.14-.14.43-1.37.43-1.93.43-2.22.21-2.51s-1.72-.43-1.87-.21m42.88,0a4.87,4.87,0,0,1-.94.28l-.79.15.72-.08c.43-.07,1-.14,1.3-.21.5-.14.57-.07.71.43.15.65.15.57-.93.93-.5.15-.72.29-.5.29.57,0,1.72-.43,1.72-.72.07-.86-.79-1.51-1.29-1.07m-3.45.35c.07.44.93.58,1.44.29.28-.14.21-.21-.29-.07a1,1,0,0,1-.93-.22c-.29-.35-.29-.35-.22,0m-57.24.36.51.29-.36,1a3.71,3.71,0,0,0-.29,1.07c.07.08.07.08.07,0a9.35,9.35,0,0,1,.36-1.07l.36-1-.43-.29a2.15,2.15,0,0,0-.57-.28c-.08.07.07.14.35.28m64.49.58a13.75,13.75,0,0,0,.29,1.51c.22,1,.29,1.07.22.28s-.51-2.37-.51-1.79m14.73,0a16.38,16.38,0,0,0,1.15,3.16,1.27,1.27,0,0,0,.86-.07c1.22-.43,1.22-.36.72-1.8-.22-.72-.44-1.15-.51-1a.75.75,0,0,0,.15.64c.64,1.29.64,1.58-.08,1.87-.93.43-1.14.36-1.29-.36a2.06,2.06,0,0,0-.29-.79.85.85,0,0,1-.14-.5c-.07-.36-.57-1.51-.57-1.15m4.74.21c.93,2.37,0,4-2.59,4.53a3,3,0,0,1-3.81-2.59c0-.14-.07-.21-.07-.14a5.07,5.07,0,0,0,.72,2.15,3.84,3.84,0,0,0,3.45.79c2.66-1.29,3.37-2.22,2.87-3.87a7.46,7.46,0,0,0-.43-1.15c-.22-.08-.22,0-.14.28m-88.55.51a2.21,2.21,0,0,0,.21,2.44c.72,1,1.44,1.36,3.52,1.94,1.15.28,3.09-1.37,3.09-2.52a.55.55,0,0,1,.22-.5c.07-.07.21-.29.14-.43s-.14,0-.29.36c-1.15,2.58-1.58,2.94-3.52,2.73-2.65-.36-4.74-3.45-2.87-4.17.29-.14.36-.14.07-.14s-.43.07-.57.29m1.72.07c.5.29.58.36.5.86s-.07.5.08.22a2.42,2.42,0,0,1,.21-.58c0-.21-.93-.79-1.22-.79-.07,0,.07.14.43.29m61.55.21c-.79.65-.86,1.3-.43,2.8.14.44.21.58.21.29-.29-1.72-.29-2-.07-2.44a2,2,0,0,1,.93-.79c.36-.22.51-.36.36-.36a2.24,2.24,0,0,0-1,.5m-44,.65c-.21.57-.14,1.08.08.65a2.84,2.84,0,0,0,.14-.65c-.07-.29-.07-.29-.22,0m46.25.22c-.43.14-.57.57-.36,1.22.08.28.22.79.29,1.07s.07.36.07-.14a2.7,2.7,0,0,0-.21-1.08c-.29-.57.14-1,1.08-1,.64,0,.79.21.79,1.07,0,.58.5,2.52.57,2.09a15.78,15.78,0,0,0-.57-3c-.15-.36-.79-.5-1.66-.28m-61.33.35c0,.51-.57,1-.79.72a1,1,0,0,0-.57-.21c-.29,0-.22.07.29.28a.85.85,0,0,0,1.29-.79c0-.35-.22-.35-.22,0m65.5.65a3.34,3.34,0,0,0,.14.72l.15.43V203a1.81,1.81,0,0,0-.15-.72c-.14-.21-.14-.21-.14,0m-50.92,1.22c-.5,2.37-.79,3.81-.93,4.31-.22.72-.14.79.93,1.15s1.65.22,1.65-.57v-.51l-.28.58-.29.57-.93-.21-.94-.22.07-.79a12,12,0,0,1,.29-1.94,17.45,17.45,0,0,0,.65-3.37,5,5,0,0,1-.22,1m25.57-.43c0,.79,1.58,1.51,3,1.37s1.37,0,1.44,2.37l.07,1.93.07-2.08c.08-2.58.08-2.58-1.58-2.58s-2.51-.29-2.8-.94c-.14-.21-.21-.28-.21-.07m-21,.29a1.33,1.33,0,0,0-.15.72v.57l.22-.65c.22-.64.14-.86-.07-.64m-2.3.79a3.21,3.21,0,0,0-.07.64c.07.08.14-.14.21-.5a2.82,2.82,0,0,0,.08-.64,1.59,1.59,0,0,0-.22.5m49.05.14c.07.58.36,1.94.65,3.16l.14.72-.07-.72a18.34,18.34,0,0,0-.65-3.16l-.21-.57.14.57m-7,.22a5.78,5.78,0,0,0,.15,1c.07.29.28,1.08.36,1.65a7.33,7.33,0,0,0,.28,1,7.74,7.74,0,0,0-.07-1c-.5-2.37-.72-3.08-.72-2.65m2.45-.07c0,.79.28,1.36.35.71a2.8,2.8,0,0,0-.14-.86c-.21-.14-.21-.14-.21.15m-42.59.93c-.14.65-.43,2-.58,2.87l-.07.65.29-.72a5.37,5.37,0,0,0,.29-1.36,2.16,2.16,0,0,1,.21-1,1.25,1.25,0,0,0,.15-.72c-.15-.14-.22-.07-.29.29m44.81-.14a1.9,1.9,0,0,0,.15.71l.14.36V206a2.13,2.13,0,0,0-.14-.71l-.15-.36v.36m-47,.5c-.21,1.08-.36,2.08-.21,1.87a6.44,6.44,0,0,0,.43-2.16c-.07-.36-.15-.29-.22.29m4.38.86c-.07.29-.07.65,0,.65s.15-.15.22-.51.07-.64,0-.64-.14.14-.22.5m40.79-.36c0,.43.36,1.51.58,1.51.07,0,.14-.07,0-.22s-.22-.5-.36-.86-.22-.57-.22-.43m2.09.79a1.28,1.28,0,0,1-.65.58l-.43.14h.5c.51,0,1-.5.86-.93-.07-.15-.14,0-.28.21m-23.63-.14a7.57,7.57,0,0,0,.14,3.3,3.38,3.38,0,0,0,2.23,1.65c.29,0,.22-.07-.36-.36-1.51-.64-1.94-1.29-1.94-3.23,0-1.22.07-1.29,1.29-1.29.79,0,.79,0,1,1.94.07.93.14,1.07.57,1.15.72.21,1.51,0,1.51-.36s0-.29-.07-.07-.29.28-.86.21l-.79-.07-.22-1.29a4.58,4.58,0,0,0-.36-1.51,3.54,3.54,0,0,0-2.15-.07M128.44,208a2.87,2.87,0,0,1-.15.87c-.07.28-.07.28.08,0a1.76,1.76,0,0,0,.14-.87l-.07-.5v.5m39.14.72c0,.36.79.94,1.22.94.21,0,.07-.08-.29-.29a3.3,3.3,0,0,1-.79-.58c-.14-.35-.14-.35-.14-.07m4.09.43c-1.94.43-1.36.51.79.08,1.08-.22,2.08-.58,1.44-.51-.15,0-1.15.22-2.23.43m-43.66.58c-.07.21-.22.21-.72.07-.72-.22-1.08-.22-.72,0,.86.5,2.16.29,1.65-.29-.07-.07-.21,0-.21.22" transform="translate(-5.56 -86.84)"/></svg>